<svg xmlns="http://www.w3.org/2000/svg" width="20" height="20" viewBox="0 0 20 20" fill="none">
  <g clip-path="url(#clip0_2968_19115)">
  <path d="M20 10C20 11.9739 19.4141 13.8936 18.3057 15.5515C18.0659 15.91 17.5807 16.0065 17.222 15.7668C16.8633 15.5269 16.767 15.0417 17.0067 14.6831C17.9428 13.2829 18.4375 11.6637 18.4375 10C18.4375 5.3476 14.6524 1.5625 10 1.5625C5.3476 1.5625 1.5625 5.3476 1.5625 10C1.5625 14.6524 5.3476 18.4375 10 18.4375C11.5431 18.4375 13.0525 18.0173 14.3648 17.2224C14.7337 16.9989 15.2142 17.1169 15.4378 17.486C15.6613 17.8549 15.5434 18.3353 15.1743 18.5588C13.6179 19.5016 11.8286 20 10 20C7.32895 20 4.81766 18.9598 2.92892 17.0711C1.04019 15.1823 0 12.6711 0 10C0 7.32895 1.04019 4.81766 2.92892 2.92892C4.81766 1.04019 7.32895 0 10 0C12.6711 0 15.1823 1.04019 17.0711 2.92892C18.9598 4.81766 20 7.32895 20 10ZM10.4224 14.6913C10.5751 14.845 10.7758 14.9219 10.9766 14.9219C11.1757 14.9219 11.3748 14.8462 11.5273 14.6948L14.5819 11.6597C15.0279 11.2167 15.2734 10.6273 15.2734 10C15.2734 9.37271 15.0279 8.78326 14.5819 8.3403L11.5273 5.30518C11.2212 5.00107 10.7265 5.00275 10.4224 5.30869C10.1183 5.61478 10.1198 6.10947 10.4259 6.41357L13.2492 9.21875H5.15625C4.72473 9.21875 4.375 9.56848 4.375 10C4.375 10.4315 4.72473 10.7812 5.15625 10.7812H13.2494L10.4259 13.5864C10.1198 13.8905 10.1183 14.3852 10.4224 14.6913Z" fill="#E5392C"/>
  </g>
  <defs>
  <clipPath id="clip0_2968_19115">
  <rect width="20" height="20" fill="white"/>
  </clipPath>
  </defs>
</svg>
