<svg width="24" height="24" viewBox="0 0 24 24" fill="none" xmlns="http://www.w3.org/2000/svg">
<g id="copy 3">
<g id="Group">
<path id="Vector" d="M5.75195 2.06719C5.25038 2.18437 4.73007 2.64375 4.55195 3.12187C4.45351 3.37969 4.45351 3.38437 4.46288 10.5844L4.47695 17.7891L4.61757 18.0609C4.79101 18.4125 5.1707 18.7594 5.52226 18.8953C5.74726 18.9844 5.90663 19.0031 6.57226 19.0219L7.35038 19.0406L7.36913 19.8703C7.3832 20.6625 7.38788 20.7047 7.51445 20.9625C7.67851 21.3 8.07226 21.6609 8.42851 21.8062L8.6957 21.9141H13.7816H18.8676L19.1723 21.7687C19.716 21.5109 20.0535 21.0656 20.1566 20.4797C20.1941 20.2687 20.2035 18.1031 20.1941 13.2188L20.1801 6.25781L20.0535 5.98594C19.8801 5.62031 19.6879 5.38125 19.416 5.2125C19.0504 4.97812 18.7691 4.92188 17.9957 4.92188H17.3066L17.2879 4.13437C17.2738 3.37031 17.2691 3.34219 17.1238 3.0375C16.8848 2.52656 16.4676 2.18906 15.9285 2.0625C15.6754 2.00625 6.00507 2.00625 5.75195 2.06719ZM15.9754 3.01406C16.0551 3.06094 16.1816 3.18281 16.2566 3.29062L16.3832 3.4875V10.5234V17.5594L16.2566 17.7516C16.191 17.8547 16.0551 17.9766 15.9519 18.0281C15.7785 18.1125 15.5863 18.1172 10.9551 18.1312C7.71132 18.1359 6.07538 18.1266 5.95351 18.0937C5.72382 18.0328 5.48945 17.8406 5.40976 17.6391C5.31132 17.4094 5.31132 3.57187 5.40976 3.38437C5.49882 3.21094 5.71445 3.02344 5.8832 2.9625C5.97695 2.92969 7.58476 2.91562 10.9223 2.92031C15.5207 2.92969 15.8301 2.93437 15.9754 3.01406ZM18.8816 5.92031C18.9613 5.96719 19.0879 6.08906 19.1629 6.19687L19.2894 6.39375L19.3035 13.2609C19.3129 18.1594 19.3035 20.2031 19.266 20.3719C19.1957 20.7047 18.9754 20.925 18.6566 20.9953C18.3566 21.0609 9.15976 21.0656 8.88788 21C8.66288 20.9484 8.49413 20.8312 8.3582 20.625C8.25976 20.4797 8.25038 20.4187 8.25038 19.7531V19.0312H11.8973C14.2129 19.0312 15.6519 19.0125 15.8441 18.9797C16.566 18.8625 17.1144 18.3234 17.2457 17.6016C17.2832 17.4141 17.2973 15.5203 17.2973 11.5641V5.80312L18.0144 5.82187C18.5816 5.83594 18.7598 5.85469 18.8816 5.92031Z" fill="black"/>
</g>
</g>
</svg>
