<svg xmlns="http://www.w3.org/2000/svg" width="24" height="24" viewBox="0 0 24 24" fill="none">
  <mask id="mask0_1466_3046" style="mask-type:luminance" maskUnits="userSpaceOnUse" x="0" y="0" width="24" height="24">
    <path d="M0 1.90735e-06H24V24H0V1.90735e-06Z" fill="white"/>
  </mask>
  <g mask="url(#mask0_1466_3046)">
    <path d="M16.3763 7.83788C16.9142 8.32941 17.5254 8.9453 18.1377 9.67964C19.1653 10.9137 19.9865 12.2323 20.5778 13.593C21.3191 15.3058 21.6945 17.0936 21.6945 18.9048C21.6945 21.312 19.7331 23.2734 17.326 23.2734H6.67423C4.26706 23.2734 2.30566 21.312 2.30566 18.9048C2.30566 17.0936 2.68104 15.3058 3.42241 13.593C4.0137 12.2323 4.83016 10.9137 5.86249 9.67964C6.44393 8.98013 7.02434 8.38861 7.54259 7.90922" stroke="#151515" stroke-miterlimit="10"/>
    <path d="M8.32593 5.48199L6.5945 2.27035C6.47722 2.04985 6.51472 1.7777 6.69777 1.60407C7.31713 0.998729 7.97408 0.703135 8.70604 0.703135C9.3771 0.703135 9.99177 0.956542 10.5267 1.18173C10.9491 1.35535 11.3479 1.52429 11.6717 1.52429C11.7702 1.52429 11.8546 1.51023 11.9391 1.47737C13.0559 1.06914 13.9146 0.815729 14.7451 0.815729C15.7963 0.815729 16.6925 1.23807 17.57 2.13901C17.753 2.3267 17.7811 2.62229 17.6356 2.84284L15.8889 5.48199" stroke="#151515" stroke-miterlimit="10"/>
    <path d="M16.6649 5.48199H7.33571C6.66545 5.48199 6.12207 6.02537 6.12207 6.69563C6.12207 7.3659 6.66545 7.90927 7.33571 7.90927H16.6649C17.3352 7.90927 17.8786 7.3659 17.8786 6.69563C17.8786 6.02537 17.3352 5.48199 16.6649 5.48199Z" stroke="#151515" stroke-miterlimit="10" stroke-linecap="round" stroke-linejoin="round"/>
    <path d="M10.6343 18.3187H12C12.7543 18.3187 13.3657 17.7073 13.3657 16.953C13.3657 16.1988 12.7543 15.5873 12 15.5873C11.2458 15.5873 10.6343 14.9759 10.6343 14.2216C10.6343 13.4673 11.2458 12.8559 12 12.8559H13.3657" stroke="#151515" stroke-miterlimit="10" stroke-linecap="round" stroke-linejoin="round"/>
    <path d="M12 12.8559V11.3339" stroke="#151515" stroke-miterlimit="10" stroke-linecap="round" stroke-linejoin="round"/>
    <path d="M12 19.8407V18.3187" stroke="#151515" stroke-miterlimit="10" stroke-linecap="round" stroke-linejoin="round"/>
  </g>
</svg>
