<svg xmlns="http://www.w3.org/2000/svg" width="28" height="28" viewBox="0 0 28 28" fill="none">
<g clip-path="url(#clip0_3128_1945)">
<path fill-rule="evenodd" clip-rule="evenodd" d="M28 18.1562C28 18.7604 27.5104 19.25 26.9062 19.25C26.3021 19.25 25.8125 18.7604 25.8125 18.1562V4.375C25.8125 3.16888 24.8311 2.1875 23.625 2.1875H4.375C3.16888 2.1875 2.1875 3.16888 2.1875 4.375V23.625C2.1875 24.8311 3.16888 25.8125 4.375 25.8125H8.16667V25.8183H23.3333V25.8125H23.625C24.8311 25.8125 25.8125 24.8311 25.8125 23.625C25.8125 23.0209 26.3021 22.5312 26.9062 22.5312C27.5104 22.5312 28 23.0209 28 23.625C28 26.0374 26.0374 28 23.625 28H4.375C1.96255 28 0 26.0374 0 23.625V4.375C0 1.96255 1.96255 0 4.375 0H23.625C26.0374 0 28 1.96255 28 4.375V18.1562Z" fill="#141414"/>
<g clip-path="url(#clip1_3128_1945)">
<path d="M21.6674 9.63818C20.6687 9.63818 19.7472 9.30732 19.0072 8.74917C18.1585 8.10933 17.5487 7.17075 17.3334 6.08896C17.2801 5.82168 17.2514 5.54585 17.2486 5.26318H14.3957V13.0589L14.3922 17.329C14.3922 18.4706 13.6488 19.4385 12.6183 19.779C12.3192 19.8777 11.9962 19.9246 11.6599 19.9061C11.2306 19.8825 10.8283 19.753 10.4787 19.5438C9.73458 19.0988 9.23008 18.2915 9.21641 17.3679C9.19488 15.9245 10.3618 14.7477 11.8042 14.7477C12.0889 14.7477 12.3623 14.7942 12.6183 14.8786V12.7479V11.9819C12.3483 11.9419 12.0735 11.921 11.7956 11.921C10.2169 11.921 8.74029 12.5773 7.68482 13.7596C6.88707 14.653 6.40855 15.7929 6.33472 16.9882C6.23799 18.5584 6.81255 20.051 7.92681 21.1523C8.09053 21.314 8.26246 21.464 8.44224 21.6024C9.39756 22.3376 10.5655 22.7362 11.7956 22.7362C12.0735 22.7362 12.3483 22.7157 12.6183 22.6757C13.7674 22.5055 14.8277 21.9794 15.6644 21.1523C16.6925 20.1361 17.2606 18.7871 17.2668 17.3512L17.2521 10.9746C17.7425 11.353 18.2788 11.6661 18.8544 11.9091C19.7496 12.2868 20.6987 12.4782 21.6756 12.4778V10.4062V9.6375C21.6763 9.63818 21.6681 9.63818 21.6674 9.63818Z" fill="black"/>
</g>
</g>
<defs>
<clipPath id="clip0_3128_1945">
<rect width="28" height="28" fill="white"/>
</clipPath>
<clipPath id="clip1_3128_1945">
<rect width="17.5" height="17.5" fill="white" transform="translate(5.25 5.25)"/>
</clipPath>
</defs>
</svg>