<svg width="178" height="24" viewBox="0 0 178 24" fill="none" xmlns="http://www.w3.org/2000/svg">
<g id="1 6" clip-path="url(#clip0_687_2799)">
<path id="Vector" d="M13.6484 2.78403C13.6484 0.864033 11.8244 0.384033 10.3844 0.384033V0.672033C11.2484 0.672033 11.9204 0.960033 11.9204 1.63203C11.9204 2.01603 11.6324 2.59203 10.7684 2.59203C10.0964 2.59203 8.65639 2.20803 7.60039 1.82403C6.35239 1.34403 5.20039 0.960033 4.24039 0.960033C2.32039 0.960033 0.976391 2.40003 0.976391 4.03203C0.976391 5.47203 2.03239 5.95203 2.41639 6.14403L2.51239 5.95203C2.32039 5.76003 2.03239 5.56803 2.03239 4.99203C2.03239 4.60803 2.41639 3.93603 3.37639 3.93603C4.24039 3.93603 5.39239 4.32003 6.92839 4.80003C8.27239 5.18403 9.71239 5.47203 10.4804 5.56803V8.54403L9.04039 9.79203V9.88803L10.4804 11.136V15.264C9.71239 15.744 8.84839 15.84 8.08039 15.84C6.64039 15.84 5.39239 15.456 4.33639 14.304L8.27239 12.384V5.76003L3.47239 7.87203C3.85639 6.62403 4.91239 5.76003 5.96839 5.18403L5.87239 4.89603C2.99239 5.66403 0.400391 8.35203 0.400391 11.616C0.400391 15.456 3.56839 18.336 7.12039 18.336C10.9604 18.336 13.4564 15.264 13.4564 12.096H13.2644C12.6884 13.344 11.8244 14.496 10.7684 15.072V11.136L12.3044 9.88803V9.79203L10.7684 8.54403V5.56803C12.2084 5.56803 13.6484 4.60803 13.6484 2.78403ZM5.29639 13.344L4.14439 13.92C3.47239 13.056 3.08839 11.904 3.08839 10.272C3.08839 9.60003 3.08839 8.83203 3.28039 8.25603L5.29639 7.39203V13.344ZM15.4724 15.552L14.2244 16.512L14.4164 16.704L14.9924 16.224L17.1044 18.144L19.9844 16.224L19.8884 16.032L19.1204 16.512L18.1604 15.552V9.02403L18.9284 8.44803L20.5604 9.79203V15.648C20.5604 19.296 19.7924 19.872 18.1604 20.448V20.736C20.8484 20.832 23.3444 19.968 23.3444 15.264V8.92803L24.2084 8.25603L24.0164 8.06403L23.2484 8.64003L20.8484 6.62403L18.1604 8.64003V0.768033H17.9684L14.6084 3.07203V3.26403C14.9924 3.45603 15.5684 3.64803 15.5684 4.70403L15.4724 15.552ZM33.0404 14.496L30.6404 16.32L28.2404 14.4V13.248L32.7524 10.176V10.08L30.4484 6.62403L25.4564 9.31203V15.648L24.4964 16.416L24.6884 16.608L25.5524 15.936L28.8164 18.336L33.1364 14.88L33.0404 14.496ZM28.2404 12.864V8.16003L28.4324 8.06403L30.5444 11.424L28.2404 12.864ZM51.3764 1.92003C51.3764 1.63203 51.2804 1.34403 51.1844 1.05603H50.9924C50.7044 1.82403 50.3204 2.20803 49.3604 2.20803C48.4964 2.20803 47.9204 1.72803 47.5364 1.34403L44.7524 4.51203L44.9444 4.70403L45.9044 3.84003C46.4804 4.32003 46.9604 4.70403 48.3044 4.80003V12.768L42.6404 3.07203C42.1604 2.30403 41.4884 1.24803 40.1444 1.24803C38.6084 1.24803 37.2644 2.59203 37.4564 4.70403H37.7444C37.8404 4.12803 38.1284 3.45603 38.8004 3.45603C39.2804 3.45603 39.7604 3.93603 40.0484 4.41603V7.58403C38.3204 7.58403 37.1684 8.35203 37.1684 9.79203C37.1684 10.56 37.5524 11.712 38.7044 12V11.808C38.5124 11.616 38.4164 11.424 38.4164 11.136C38.4164 10.656 38.8004 10.272 39.4724 10.272H39.9524V14.304C37.9364 14.304 36.3044 15.456 36.3044 17.376C36.3044 19.2 37.8404 20.064 39.5684 19.968V19.776C38.5124 19.68 38.0324 19.2 38.0324 18.528C38.0324 17.664 38.6084 17.28 39.3764 17.28C40.1444 17.28 40.8164 17.76 41.2964 18.336L44.0804 15.264L43.8884 15.072L43.2164 15.84C42.1604 14.88 41.5844 14.592 40.3364 14.4V4.80003L48.0164 18.24H48.5924V4.80003C50.0324 4.70403 51.3764 3.55203 51.3764 1.92003ZM58.3844 14.496L55.9844 16.32L53.5844 14.4V13.248L58.0964 10.176V10.08L55.7924 6.62403L50.8004 9.31203V15.648L49.8404 16.416L50.0324 16.608L50.8964 15.936L54.1604 18.336L58.4804 14.88L58.3844 14.496ZM53.5844 12.864V8.16003L53.7764 8.06403L55.8884 11.424L53.5844 12.864ZM74.0324 7.68003L73.3604 8.16003L71.5364 6.62403L69.4244 8.54403L70.2884 9.40803V16.608L67.9844 15.168V9.21603L68.7524 8.73603L66.5444 6.62403L64.4324 8.54403L65.2964 9.40803V16.32L65.0084 16.512L62.9924 15.072V9.31203C62.9924 7.96803 62.3204 7.58403 61.5524 7.10403C60.8804 6.62403 60.4964 6.33603 60.4964 5.66403C60.4964 5.08803 61.0724 4.80003 61.3604 4.60803V4.41603C60.5924 4.41603 58.5764 5.18403 58.5764 7.00803C58.5764 7.96803 59.0564 8.35203 59.5364 8.83203C60.0164 9.31203 60.4964 9.69603 60.4964 10.56V16.128L59.4404 16.896L59.6324 17.088L60.5924 16.32L62.8004 18.24L65.2004 16.608L67.8884 18.24L72.9764 15.264V8.83203L74.2244 7.87203L74.0324 7.68003ZM91.8884 2.40003L90.9284 3.26403L88.8164 1.34403L85.6484 3.64803V1.53603H85.3604L85.4564 17.088C85.1684 17.088 84.3044 16.896 83.6324 16.704L83.4404 3.74403C83.4404 2.78403 82.7684 1.44003 81.0404 1.44003C79.3124 1.44003 78.1604 2.78403 78.1604 4.12803H78.4484C78.5444 3.55203 78.8324 3.07203 79.4084 3.07203C79.9844 3.07203 80.4644 3.45603 80.4644 4.70403V8.44803C78.7364 8.54403 77.6804 9.50403 77.6804 10.752C77.6804 11.52 78.0644 12.672 79.2164 12.672V12.48C78.8324 12.288 78.7364 12 78.7364 11.808C78.7364 11.232 79.2164 11.04 79.9844 11.04H80.3684V16.992C78.9284 17.472 78.3524 18.528 78.3524 19.68C78.3524 21.312 79.6004 22.464 81.5204 22.464C82.8644 22.464 84.0164 22.272 85.1684 21.984C86.1284 21.792 87.3764 21.504 87.9524 21.504C88.7204 21.504 89.0084 21.888 89.0084 22.368C89.0084 23.04 88.7204 23.328 88.3364 23.424V23.616C89.8724 23.328 90.8324 22.368 90.8324 20.928C90.8324 19.488 89.3924 18.624 87.8564 18.624C87.0884 18.624 85.4564 18.912 84.3044 19.104C82.9604 19.392 81.6164 19.584 81.2324 19.584C80.5604 19.584 79.7924 19.296 79.7924 18.336C79.7924 17.568 80.4644 16.896 82.0964 16.896C82.9604 16.896 84.0164 16.992 85.0724 17.28C86.2244 17.568 87.2804 17.856 88.2404 17.856C89.6804 17.856 90.9284 17.376 90.9284 15.36V3.55203L92.0804 2.59203L91.8884 2.40003ZM87.9524 8.25603C87.6644 8.54403 87.2804 8.83203 86.8004 8.83203C86.3204 8.83203 85.8404 8.54403 85.6484 8.25603V4.03203L86.6084 3.36003L87.9524 4.60803V8.25603ZM87.9524 11.136C87.7604 10.944 87.2804 10.656 86.8004 10.656C86.3204 10.656 85.8404 10.944 85.6484 11.136V8.64003C85.8404 8.83203 86.3204 9.12003 86.8004 9.12003C87.2804 9.12003 87.7604 8.83203 87.9524 8.64003V11.136ZM87.9524 15.648C87.9524 16.416 87.4724 17.184 86.4164 17.184H85.6484V11.52C85.8404 11.328 86.3204 11.04 86.8004 11.04C87.2804 11.04 87.6644 11.328 87.9524 11.52V15.648ZM101.104 8.83203L98.0324 6.62403L93.3284 9.31203V15.552L92.3684 16.32L92.4644 16.512L93.2324 15.936L96.3044 18.24L101.104 15.36V8.83203ZM95.9204 14.88V7.96803L98.3204 9.69603V16.512L95.9204 14.88ZM110.224 6.81603H110.032C109.744 7.00803 109.456 7.20003 109.168 7.20003C108.784 7.20003 108.304 7.00803 108.112 6.72003H107.92L106.288 8.54403L104.656 6.72003L101.776 8.64003L101.872 8.83203L102.64 8.35203L103.6 9.40803V15.456L102.352 16.416L102.544 16.608L103.12 16.128L105.424 18.048L108.4 16.032L108.304 15.84L107.44 16.32L106.288 15.36V8.64003C106.768 9.12003 107.344 9.60003 108.016 9.60003C109.36 9.69603 110.128 8.35203 110.224 6.81603ZM121.744 16.032L118.48 18.24L114.064 11.52L117.232 6.62403H117.424C117.808 7.00803 118.384 7.39203 119.056 7.39203C119.728 7.39203 120.208 7.00803 120.496 6.62403H120.688C120.592 8.54403 119.248 9.69603 118.288 9.69603C117.328 9.69603 116.848 9.21603 116.272 8.92803L115.984 9.40803L120.784 16.512L121.744 15.936V16.032ZM111.184 15.552L109.936 16.512L110.128 16.704L110.704 16.224L112.816 18.144L115.696 16.224L115.504 16.032L114.736 16.512L113.776 15.552V0.768033H113.68L110.224 3.07203V3.26403C110.608 3.45603 111.184 3.55203 111.184 4.70403V15.552ZM137.68 2.78403C137.68 0.864033 135.856 0.384033 134.416 0.384033V0.672033C135.28 0.672033 135.952 0.960033 135.952 1.63203C135.952 2.01603 135.664 2.59203 134.8 2.59203C134.128 2.59203 132.688 2.20803 131.632 1.82403C130.384 1.44003 129.232 1.05603 128.272 1.05603C126.352 1.05603 125.008 2.49603 125.008 4.12803C125.008 5.56803 126.064 6.04803 126.448 6.24003L126.544 6.04803C126.256 5.85603 125.968 5.66403 125.968 5.08803C125.968 4.70403 126.352 4.03203 127.312 4.03203C128.176 4.03203 129.328 4.41603 130.864 4.89603C132.208 5.28003 133.648 5.56803 134.416 5.66403V8.64003L132.976 9.88803V9.98403L134.416 11.232V15.36C133.648 15.84 132.784 15.936 132.016 15.936C130.576 15.936 129.328 15.552 128.272 14.4L132.208 12.48V5.76003L127.408 7.87203C127.888 6.62403 128.944 5.76003 129.904 5.08803L129.808 4.89603C126.928 5.66403 124.336 8.25603 124.336 11.52C124.336 15.36 127.504 18.24 131.056 18.24C134.896 18.24 137.392 15.168 137.392 12H137.2C136.624 13.248 135.76 14.4 134.704 14.976V11.04L136.24 9.79203V9.69603L134.8 8.44803V5.56803C136.24 5.56803 137.68 4.60803 137.68 2.78403ZM129.328 13.344L128.176 13.92C127.504 13.056 127.12 11.904 127.12 10.272C127.12 9.60003 127.216 8.83203 127.408 8.25603L129.424 7.39203L129.328 13.344ZM141.04 1.82403H140.944L139.024 3.45603V3.55203L140.656 5.37603H140.848L142.768 3.74403V3.64803L141.04 1.82403ZM143.92 16.032L143.152 16.512L142.192 15.552V8.92803L143.152 8.25603L142.96 8.06403L142.288 8.64003L140.56 6.62403L137.776 8.54403L137.968 8.83203L138.64 8.35203L139.504 9.40803V15.648L138.256 16.608L138.352 16.8L139.024 16.32L141.136 18.24L144.016 16.32L143.92 16.032ZM159.952 15.936L159.28 16.416L158.224 15.456V8.92803L159.184 8.16003L158.992 7.96803L158.224 8.64003L156.016 6.62403L153.136 8.64003L150.928 6.62403L148.24 8.64003L146.512 6.62403L143.728 8.54403L143.824 8.83203L144.496 8.35203L145.456 9.40803V15.648L144.688 16.416L146.896 18.24L149.008 16.32L148.144 15.456V8.92803L149.008 8.35203L150.448 9.69603V15.456L149.68 16.224L151.888 18.048L154 16.128L153.136 15.264V8.92803L153.904 8.44803L155.44 9.79203V15.552L154.768 16.224L156.976 18.24L159.952 16.224V15.936ZM168.304 14.496L165.904 16.32L163.504 14.4V13.248L168.016 10.176V10.08L165.712 6.62403L160.72 9.31203V15.84L164.08 18.24L168.4 14.784L168.304 14.496ZM163.504 12.864V8.16003L163.696 8.06403L165.808 11.424L163.504 12.864ZM177.04 12L175.216 10.56C176.464 9.50403 176.944 8.06403 176.944 7.10403V6.52803H176.752C176.56 7.00803 176.176 7.48803 175.408 7.48803C174.64 7.48803 174.16 7.10403 173.68 6.52803L169.36 8.92803V12.384L170.992 13.632C169.36 15.072 169.072 16.032 169.072 16.8C169.072 17.76 169.552 18.432 170.32 18.72L170.416 18.528C170.224 18.336 170.032 18.24 170.032 17.76C170.032 17.472 170.416 16.992 171.184 16.992C172.144 16.992 172.72 17.664 173.008 17.952L177.136 15.456V12H177.04ZM175.984 9.12003C175.312 10.272 173.872 11.424 173.008 12L171.952 11.136V7.77603C172.336 8.73603 173.392 9.50403 174.448 9.50403C175.12 9.50403 175.504 9.40803 175.984 9.12003ZM174.352 16.8C173.872 15.744 172.72 14.976 171.568 14.976C171.28 14.976 170.512 14.976 169.744 15.456C170.224 14.688 171.472 13.344 173.104 12.384L174.256 13.344L174.352 16.8Z" fill="black"/>
</g>
<defs>
<clipPath id="clip0_687_2799">
<rect width="177.6" height="24" fill="white" transform="translate(0.400391)"/>
</clipPath>
</defs>
</svg>
