<svg width="24" height="24" viewBox="0 0 24 24" fill="none" xmlns="http://www.w3.org/2000/svg">
<g clip-path="url(#clip0_854_1125)">
<path d="M15.6947 10.9216L10.3926 8.02051C10.0877 7.8537 9.72735 7.85993 9.42853 8.03699C9.12952 8.21424 8.95117 8.52734 8.95117 8.87488V14.6273C8.95117 14.9732 9.12842 15.2857 9.42541 15.4632C9.5805 15.5558 9.75244 15.6023 9.92474 15.6023C10.0826 15.6023 10.2408 15.5633 10.3863 15.485L15.6887 12.6338C16.0035 12.4645 16.1999 12.1373 16.2014 11.7797C16.2027 11.422 16.0086 11.0934 15.6947 10.9216ZM10.3576 13.9037V9.60437L14.3204 11.7727L10.3576 13.9037Z" fill="#010101"/>
<path d="M23.8253 7.19658L23.8242 7.18559C23.8039 6.99242 23.6016 5.27416 22.7663 4.4002C21.8008 3.37225 20.7062 3.24737 20.1797 3.1875C20.1362 3.18256 20.0962 3.17798 20.0605 3.17322L20.0186 3.16882C16.8458 2.93811 12.0541 2.90662 12.0061 2.90643L12.0019 2.90625L11.9977 2.90643C11.9497 2.90662 7.15805 2.93811 3.95665 3.16882L3.91435 3.17322C3.88029 3.17779 3.84276 3.18201 3.80193 3.18677C3.28154 3.24682 2.19866 3.37189 1.2304 4.43701C0.434813 5.30163 0.204833 6.98308 0.181213 7.17204L0.178466 7.19658C0.171325 7.27696 0.00195312 9.19059 0.00195312 11.1117V12.9076C0.00195312 14.8287 0.171325 16.7424 0.178466 16.8229L0.179748 16.835C0.200072 17.0251 0.40222 18.7119 1.2337 19.5862C2.14153 20.5797 3.28942 20.7112 3.90684 20.7819C4.00444 20.793 4.08848 20.8025 4.1458 20.8126L4.20128 20.8203C6.03324 20.9946 11.7771 21.0805 12.0206 21.084L12.0279 21.0842L12.0352 21.084C12.0832 21.0838 16.8747 21.0523 20.0475 20.8216L20.0895 20.8172C20.1296 20.8119 20.1746 20.8071 20.224 20.802C20.7415 20.7471 21.8185 20.633 22.7734 19.5823C23.569 18.7175 23.7992 17.0361 23.8226 16.8473L23.8253 16.8228C23.8325 16.7422 24.002 14.8287 24.002 12.9076V11.1117C24.0019 9.19059 23.8325 7.27714 23.8253 7.19658ZM22.5954 12.9076C22.5954 14.6857 22.4402 16.517 22.4255 16.6851C22.3658 17.1481 22.1232 18.212 21.7356 18.6333C21.1379 19.2908 20.524 19.356 20.0757 19.4034C20.0215 19.4091 19.9714 19.4146 19.9259 19.4203C16.8571 19.6422 12.2464 19.6763 12.0339 19.6775C11.7957 19.6741 6.13596 19.5875 4.35985 19.4225C4.26884 19.4076 4.17052 19.3963 4.06688 19.3846C3.54118 19.3243 2.82158 19.2419 2.26824 18.6333L2.25524 18.6194C1.87438 18.2226 1.63873 17.2278 1.57885 16.6906C1.56768 16.5635 1.40838 14.7106 1.40838 12.9076V11.1117C1.40838 9.33561 1.56329 7.50639 1.5783 7.33482C1.64953 6.78935 1.89672 5.78997 2.26824 5.38604C2.8842 4.70855 3.53368 4.63348 3.96324 4.58386C4.00426 4.5791 4.04253 4.5747 4.07786 4.57012C7.19138 4.3471 11.8353 4.31396 12.0019 4.31268C12.1685 4.31378 16.8108 4.3471 19.8967 4.57012C19.9346 4.57488 19.9759 4.57964 20.0204 4.58477C20.4623 4.63513 21.13 4.7113 21.7429 5.36498L21.7486 5.37102C22.1294 5.76781 22.3651 6.78001 22.425 7.32805C22.4356 7.44798 22.5954 9.30485 22.5954 11.1117V12.9076Z" fill="#010101"/>
</g>
<defs>
<clipPath id="clip0_854_1125">
<rect width="24" height="23.9999" fill="white"/>
</clipPath>
</defs>
</svg>
