<svg xmlns="http://www.w3.org/2000/svg" width="250" height="32" viewBox="0 0 250 32" fill="none">
<rect width="250" height="32" fill="#151515"/>
<path d="M19.941 26.4218C17.5801 26.4218 15.5193 26.0184 13.7586 25.2118C11.998 24.4051 10.6275 23.2541 9.64709 21.7589C8.68673 20.2636 8.20654 18.5224 8.20654 16.5352V16.2696C8.20654 14.2824 8.68673 12.5412 9.64709 11.0459C10.6275 9.55067 11.998 8.39969 13.7586 7.59303C15.5393 6.76669 17.6001 6.35352 19.941 6.35352C22.3019 6.35352 24.3627 6.76669 26.1233 7.59303C27.884 8.39969 29.2445 9.55067 30.2049 11.0459C31.1653 12.5412 31.6454 14.2824 31.6454 16.2696V16.5352C31.6454 18.5224 31.1653 20.2636 30.2049 21.7589C29.2445 23.2541 27.884 24.4051 26.1233 25.2118C24.3627 26.0184 22.3019 26.4218 19.941 26.4218ZM19.941 22.3196C22.2619 22.3196 24.0225 21.8277 25.223 20.844C26.4435 19.8602 27.0537 18.4437 27.0537 16.5942V16.2401C27.0537 14.3907 26.4335 12.9642 25.193 11.9608C23.9725 10.9574 22.2219 10.4557 19.941 10.4557C17.6401 10.4557 15.8695 10.9574 14.629 11.9608C13.4085 12.9642 12.7983 14.3907 12.7983 16.2401V16.5942C12.7983 18.4437 13.4085 19.8602 14.629 20.844C15.8695 21.8277 17.6401 22.3196 19.941 22.3196Z" fill="white"/>
<path d="M46.4096 26.4218C44.0287 26.4218 41.9379 26.0184 40.1373 25.2118C38.3366 24.4051 36.946 23.264 35.9657 21.7884C35.0053 20.2931 34.5251 18.5519 34.5251 16.5647V16.2401C34.5251 14.2529 35.0053 12.5216 35.9657 11.0459C36.946 9.55067 38.3366 8.39969 40.1373 7.59303C41.9379 6.76669 44.0287 6.35352 46.4096 6.35352C48.6105 6.35352 50.5812 6.70766 52.3219 7.41595C54.0825 8.12425 55.4531 9.10798 56.4334 10.3672C57.4338 11.6264 57.934 13.0429 57.934 14.6169V14.853H53.3423V14.6169C53.3423 13.8103 53.0422 13.0921 52.4419 12.4625C51.8617 11.8329 51.0414 11.3411 49.981 10.9869C48.9406 10.6328 47.7401 10.4557 46.3796 10.4557C43.9987 10.4557 42.188 10.9476 40.9476 11.9313C39.7271 12.9151 39.1169 14.3316 39.1169 16.1811V16.6237C39.1169 18.4928 39.7271 19.9094 40.9476 20.8735C42.168 21.8376 43.9887 22.3196 46.4096 22.3196C48.5104 22.3196 50.1911 21.9458 51.4515 21.1981C52.712 20.4308 53.3423 19.4274 53.3423 18.1879V17.9813H57.934V18.1879C57.934 19.7619 57.4338 21.1785 56.4334 22.4376C55.4531 23.6772 54.0825 24.6511 52.3219 25.3593C50.5812 26.0676 48.6105 26.4218 46.4096 26.4218Z" fill="white"/>
<path d="M72.6403 26.4218C70.2594 26.4218 68.1686 26.0184 66.3679 25.2118C64.5672 24.4051 63.1767 23.264 62.1963 21.7884C61.236 20.2931 60.7558 18.5519 60.7558 16.5647V16.2401C60.7558 14.2529 61.236 12.5216 62.1963 11.0459C63.1767 9.55067 64.5672 8.39969 66.3679 7.59303C68.1686 6.76669 70.2594 6.35352 72.6403 6.35352C74.8411 6.35352 76.8119 6.70766 78.5525 7.41595C80.3132 8.12425 81.6837 9.10798 82.6641 10.3672C83.6645 11.6264 84.1647 13.0429 84.1647 14.6169V14.853H79.5729V14.6169C79.5729 13.8103 79.2728 13.0921 78.6726 12.4625C78.0924 11.8329 77.272 11.3411 76.2116 10.9869C75.1712 10.6328 73.9708 10.4557 72.6103 10.4557C70.2294 10.4557 68.4187 10.9476 67.1782 11.9313C65.9577 12.9151 65.3475 14.3316 65.3475 16.1811V16.6237C65.3475 18.4928 65.9577 19.9094 67.1782 20.8735C68.3987 21.8376 70.2194 22.3196 72.6403 22.3196C74.7411 22.3196 76.4217 21.9458 77.6822 21.1981C78.9427 20.4308 79.5729 19.4274 79.5729 18.1879V17.9813H84.1647V18.1879C84.1647 19.7619 83.6645 21.1785 82.6641 22.4376C81.6837 23.6772 80.3132 24.6511 78.5525 25.3593C76.8119 26.0676 74.8411 26.4218 72.6403 26.4218Z" fill="white"/>
<path d="M97.4304 26.4218C95.4697 26.4218 93.739 26.048 92.2384 25.3003C90.7579 24.533 89.6074 23.4607 88.7871 22.0835C87.9868 20.7063 87.5867 19.1028 87.5867 17.273V6.70766H92.0884V17.332C92.0884 18.9257 92.5485 20.1554 93.4689 21.0211C94.4092 21.8867 95.7298 22.3196 97.4304 22.3196C99.151 22.3196 100.472 21.8867 101.392 21.0211C102.332 20.1554 102.802 18.9257 102.802 17.332V6.70766H107.304V17.273C107.304 19.1028 106.894 20.7063 106.074 22.0835C105.273 23.4607 104.123 24.533 102.622 25.3003C101.142 26.048 99.4111 26.4218 97.4304 26.4218Z" fill="white"/>
<path d="M124.17 6.70766C126.49 6.70766 128.321 7.25856 129.662 8.36034C131.002 9.46213 131.672 10.9672 131.672 12.8757V13.2003C131.672 15.1285 131.002 16.6434 129.662 17.7452C128.321 18.847 126.49 19.3979 124.17 19.3979H116.187V26.0676H111.685V6.70766H124.17ZM124.05 15.4728C125.03 15.4728 125.78 15.2859 126.3 14.912C126.821 14.5185 127.081 13.948 127.081 13.2003V12.8757C127.081 12.1477 126.821 11.5968 126.3 11.223C125.78 10.8295 125.03 10.6328 124.05 10.6328H116.187V15.4728H124.05Z" fill="white"/>
<path d="M139.719 6.70766V26.0676H135.187V6.70766H139.719Z" fill="white"/>
<path d="M161.772 6.70766V10.6033H148.777V14.4398H161.172V18.3059H148.777V22.172H161.772V26.0676H144.275V6.70766H161.772Z" fill="white"/>
<path d="M175.777 6.70766C179.458 6.70766 182.239 7.51433 184.12 9.12766C186.021 10.7213 186.971 13.0921 186.971 16.2401V16.5647C186.971 19.7127 186.031 22.0835 184.15 23.6772C182.269 25.2708 179.478 26.0676 175.777 26.0676H165.963V6.70766H175.777ZM175.777 22.0835C178.038 22.0835 179.698 21.6408 180.759 20.7554C181.839 19.8701 182.38 18.4928 182.38 16.6237V16.2106C182.38 14.3611 181.829 12.9839 180.729 12.0789C179.628 11.1542 177.968 10.6918 175.747 10.6918H170.465V22.0835H175.777Z" fill="white"/>
<path d="M192.257 26.4218C191.496 26.4218 190.866 26.1955 190.366 25.743C189.886 25.2708 189.646 24.6707 189.646 23.9428C189.646 23.2148 189.886 22.6246 190.366 22.172C190.866 21.6998 191.496 21.4637 192.257 21.4637C193.037 21.4637 193.667 21.6998 194.147 22.172C194.627 22.6246 194.868 23.2148 194.868 23.9428C194.868 24.6904 194.627 25.2905 194.147 25.743C193.667 26.1955 193.037 26.4218 192.257 26.4218Z" fill="white"/>
<path d="M208.273 26.4218C206.312 26.4218 204.582 26.048 203.081 25.3003C201.601 24.533 200.45 23.4607 199.63 22.0835C198.83 20.7063 198.43 19.1028 198.43 17.273V6.70766H202.931V17.332C202.931 18.9257 203.391 20.1554 204.312 21.0211C205.252 21.8867 206.573 22.3196 208.273 22.3196C209.994 22.3196 211.314 21.8867 212.235 21.0211C213.175 20.1554 213.645 18.9257 213.645 17.332V6.70766H218.147V17.273C218.147 19.1028 217.737 20.7063 216.917 22.0835C216.116 23.4607 214.966 24.533 213.465 25.3003C211.985 26.048 210.254 26.4218 208.273 26.4218Z" fill="white"/>
<path d="M241.793 25.3889V26.0676H237.291L235.491 22.054H225.647L223.846 26.0676H219.345V25.3889L228.078 6.70766H233.06L241.793 25.3889ZM233.78 18.2174L230.569 11.0164L227.358 18.2174H233.78Z" fill="white"/>
</svg>