<svg xmlns="http://www.w3.org/2000/svg" width="353" height="31" viewBox="0 0 353 31" fill="none">
<path d="M18.071 30.633C14.5108 30.633 11.4032 30.028 8.74806 28.818C6.09298 27.608 4.02623 25.8815 2.54783 23.6386C1.0996 21.3957 0.375488 18.7839 0.375488 15.8031V15.4047C0.375488 12.424 1.0996 9.81217 2.54783 7.56924C4.02623 5.32632 6.09298 3.59986 8.74806 2.38986C11.4333 1.15035 14.541 0.530594 18.071 0.530594C21.6313 0.530594 24.7389 1.15035 27.394 2.38986C30.0491 3.59986 32.1008 5.32632 33.549 7.56924C34.9972 9.81217 35.7213 12.424 35.7213 15.4047V15.8031C35.7213 18.7839 34.9972 21.3957 33.549 23.6386C32.1008 25.8815 30.0491 27.608 27.394 28.818C24.7389 30.028 21.6313 30.633 18.071 30.633ZM18.071 24.4797C21.5709 24.4797 24.226 23.7419 26.0363 22.2663C27.8768 20.7907 28.797 18.6658 28.797 15.8917V15.3605C28.797 12.5863 27.8617 10.4467 25.991 8.94156C24.1506 7.43644 21.5106 6.68388 18.071 6.68388C14.6013 6.68388 11.9312 7.43644 10.0605 8.94156C8.22006 10.4467 7.29984 12.5863 7.29984 15.3605V15.8917C7.29984 18.6658 8.22006 20.7907 10.0605 22.2663C11.9312 23.7419 14.6013 24.4797 18.071 24.4797Z" fill="#151515"/>
<path d="M57.9857 30.633C54.3953 30.633 51.2424 30.028 48.527 28.818C45.8116 27.608 43.7146 25.8963 42.2362 23.6829C40.788 21.44 40.0639 18.8281 40.0639 15.8474V15.3605C40.0639 12.3797 40.788 9.78265 42.2362 7.56924C43.7146 5.32632 45.8116 3.59986 48.527 2.38986C51.2424 1.15035 54.3953 0.530594 57.9857 0.530594C61.3046 0.530594 64.2765 1.06181 66.9014 2.12425C69.5565 3.18669 71.6232 4.6623 73.1016 6.55107C74.6102 8.43985 75.3645 10.5647 75.3645 12.9257V13.2798H68.4401V12.9257C68.4401 11.7157 67.9876 10.6385 67.0824 9.69412C66.2075 8.74973 64.9704 8.01193 63.3713 7.48071C61.8024 6.94949 59.9921 6.68388 57.9405 6.68388C54.3501 6.68388 51.6196 7.42168 49.7489 8.89729C47.9085 10.3729 46.9883 12.4978 46.9883 15.2719V15.9359C46.9883 18.7396 47.9085 20.8645 49.7489 22.3106C51.5894 23.7567 54.335 24.4797 57.9857 24.4797C61.1537 24.4797 63.6881 23.919 65.589 22.7975C67.4897 21.6465 68.4401 20.1414 68.4401 18.2822V17.9723H75.3645V18.2822C75.3645 20.6431 74.6102 22.768 73.1016 24.6568C71.6232 26.516 69.5565 27.9769 66.9014 29.0393C64.2765 30.1018 61.3046 30.633 57.9857 30.633Z" fill="#151515"/>
<path d="M97.5416 30.633C93.9512 30.633 90.7983 30.028 88.0828 28.818C85.3674 27.608 83.2705 25.8963 81.7921 23.6829C80.3438 21.44 79.6197 18.8281 79.6197 15.8474V15.3605C79.6197 12.3797 80.3438 9.78265 81.7921 7.56924C83.2705 5.32632 85.3674 3.59986 88.0828 2.38986C90.7983 1.15035 93.9512 0.530594 97.5416 0.530594C100.86 0.530594 103.832 1.06181 106.457 2.12425C109.112 3.18669 111.179 4.6623 112.657 6.55107C114.166 8.43985 114.92 10.5647 114.92 12.9257V13.2798H107.996V12.9257C107.996 11.7157 107.543 10.6385 106.638 9.69412C105.763 8.74973 104.526 8.01193 102.927 7.48071C101.358 6.94949 99.548 6.68388 97.4963 6.68388C93.9059 6.68388 91.1754 7.42168 89.3048 8.89729C87.4643 10.3729 86.5441 12.4978 86.5441 15.2719V15.9359C86.5441 18.7396 87.4643 20.8645 89.3048 22.3106C91.1452 23.7567 93.8908 24.4797 97.5416 24.4797C100.71 24.4797 103.244 23.919 105.145 22.7975C107.046 21.6465 107.996 20.1414 107.996 18.2822V17.9723H114.92V18.2822C114.92 20.6431 114.166 22.768 112.657 24.6568C111.179 26.516 109.112 27.9769 106.457 29.0393C103.832 30.1018 100.86 30.633 97.5416 30.633Z" fill="#151515"/>
<path d="M134.925 30.633C131.968 30.633 129.358 30.0723 127.096 28.9508C124.863 27.7998 123.128 26.1914 121.891 24.1256C120.684 22.0597 120.081 19.6545 120.081 16.9098V1.06181H126.869V16.9984C126.869 19.3889 127.563 21.2334 128.951 22.5319C130.369 23.8304 132.36 24.4797 134.925 24.4797C137.52 24.4797 139.511 23.8304 140.899 22.5319C142.317 21.2334 143.026 19.3889 143.026 16.9984V1.06181H149.815V16.9098C149.815 19.6545 149.196 22.0597 147.959 24.1256C146.752 26.1914 145.017 27.7998 142.755 28.9508C140.522 30.0723 137.912 30.633 134.925 30.633Z" fill="#151515"/>
<path d="M175.248 1.06181C178.748 1.06181 181.508 1.88815 183.53 3.54083C185.551 5.19351 186.562 7.45119 186.562 10.3139V10.8008C186.562 13.693 185.551 15.9655 183.53 17.6181C181.508 19.2708 178.748 20.0972 175.248 20.0972H163.209V30.1018H156.421V1.06181H175.248ZM175.067 14.2095C176.545 14.2095 177.677 13.9291 178.461 13.3684C179.245 12.7781 179.638 11.9223 179.638 10.8008V10.3139C179.638 9.22192 179.245 8.39558 178.461 7.83485C177.677 7.24461 176.545 6.94949 175.067 6.94949H163.209V14.2095H175.067Z" fill="#151515"/>
<path d="M198.696 1.06181V30.1018H191.862V1.06181H198.696Z" fill="#151515"/>
<path d="M231.952 1.06181V6.90522H212.356V12.6601H231.047V18.4592H212.356V24.2584H231.952V30.1018H205.567V1.06181H231.952Z" fill="#151515"/>
<path d="M253.072 1.06181C258.623 1.06181 262.817 2.27181 265.653 4.69181C268.52 7.08229 269.953 10.6385 269.953 15.3605V15.8474C269.953 20.5693 268.535 24.1256 265.698 26.516C262.862 28.9065 258.653 30.1018 253.072 30.1018H238.273V1.06181H253.072ZM253.072 24.1256C256.481 24.1256 258.985 23.4615 260.584 22.1335C262.214 20.8054 263.028 18.7396 263.028 15.9359V15.3162C263.028 12.542 262.199 10.4762 260.539 9.11863C258.88 7.73156 256.375 7.03802 253.026 7.03802H245.061V24.1256H253.072Z" fill="#151515"/>
<path d="M277.923 30.633C276.776 30.633 275.826 30.2936 275.072 29.6148C274.348 28.9065 273.985 28.0064 273.985 26.9145C273.985 25.8225 274.348 24.9371 275.072 24.2584C275.826 23.5501 276.776 23.1959 277.923 23.1959C279.1 23.1959 280.05 23.5501 280.774 24.2584C281.498 24.9371 281.86 25.8225 281.86 26.9145C281.86 28.0359 281.498 28.936 280.774 29.6148C280.05 30.2936 279.1 30.633 277.923 30.633Z" fill="#151515"/>
<path d="M302.076 30.633C299.119 30.633 296.509 30.0723 294.247 28.9508C292.014 27.7998 290.279 26.1914 289.042 24.1256C287.835 22.0597 287.232 19.6545 287.232 16.9098V1.06181H294.02V16.9984C294.02 19.3889 294.714 21.2334 296.102 22.5319C297.52 23.8304 299.511 24.4797 302.076 24.4797C304.671 24.4797 306.662 23.8304 308.05 22.5319C309.468 21.2334 310.177 19.3889 310.177 16.9984V1.06181H316.966V16.9098C316.966 19.6545 316.347 22.0597 315.11 24.1256C313.903 26.1914 312.168 27.7998 309.906 28.9508C307.673 30.0723 305.063 30.633 302.076 30.633Z" fill="#151515"/>
<path d="M352.624 29.0836V30.1018H345.835L343.12 24.0813H328.276L325.56 30.1018H318.772V29.0836L331.942 1.06181H339.454L352.624 29.0836ZM340.54 18.3264L335.698 7.52497L330.855 18.3264H340.54Z" fill="#151515"/>
</svg>