<svg width="141" height="32" viewBox="0 0 141 32" fill="none" xmlns="http://www.w3.org/2000/svg">
<path fill-rule="evenodd" clip-rule="evenodd" d="M2.275 9.75714L7.52498 13.3714L11.025 10.9071L12.6 9.75714L7.34999 6.14286L2.275 9.75714ZM15.4 9.75714L20.65 13.3714L25.9 9.75714L20.65 6.14286L15.4 9.75714ZM14.875 16.9857L17.5 18.7929L19.775 20.4357V14.6857L14.875 11.2357V16.9857ZM1.75 16.9857L6.65001 20.4357V14.6857L1.75 11.2357V16.9857ZM12.075 12.0571L8.22502 14.6857V20.4357L13.125 16.9857V11.2357L12.075 12.0571ZM26.25 11.2357L21.35 14.6857V20.4357L26.25 16.9857V11.2357ZM19.25 22.0786L16.45 20.1071L14 18.4643L8.75 22.0786L14 25.6929L19.25 22.0786ZM14 8.77143L20.125 4.5C20.125 4.5 20.125 4.5 20.3 4.5C20.475 4.5 20.475 4.5 20.65 4.5C20.825 4.5 20.825 4.5 21 4.5C21 4.5 21 4.5 21.175 4.5L27.65 9.1L27.825 9.26429C27.825 9.42857 28 9.42858 28 9.59286C28 9.59286 28 9.59286 28 9.75714V17.4786V17.6429C28 17.8071 27.825 17.8071 27.825 17.9714C27.825 17.9714 27.825 17.9714 27.65 18.1357L21 22.7357L14.525 27.3357C14.525 27.3357 14.35 27.3357 14.35 27.5C14.175 27.5 14 27.5 13.825 27.5C13.825 27.5 13.65 27.5 13.65 27.3357L7 22.7357L0.35 17.9714C0.35 17.9714 0.35 17.9714 0.175 17.8071C0.175 17.6429 0 17.6429 0 17.4786C0 17.4786 0 17.6429 0 17.4786V9.75714C0 9.75714 0 9.75714 0 9.59286C0 9.42858 0 9.42857 0.175 9.26429L0.35 9.1L7 4.5C7 4.5 7 4.5 7.17499 4.5C7.34999 4.5 7.34999 4.5 7.52498 4.5C7.52498 4.5 7.52498 4.5 7.69998 4.5C7.87503 4.5 7.87503 4.5 8.05002 4.66429L14 8.77143Z" fill="#010101"/>
<path d="M39.0834 22.2926H37V10.2261H42.5496C43.705 10.2261 44.6145 10.5545 45.2783 11.2114C45.942 11.8568 46.2739 12.7385 46.2739 13.8564C46.2739 14.7207 46.0588 15.441 45.6286 16.0173C45.2107 16.582 44.5899 16.9796 43.7664 17.2101L46.5504 22.2926H44.2273L41.6461 17.4176H39.0834V22.2926ZM42.4021 15.7753C42.9306 15.7753 43.3424 15.6485 43.6374 15.3949C43.9323 15.1299 44.0798 14.7553 44.0798 14.2713V13.4415C44.0798 12.9574 43.9323 12.5887 43.6374 12.3351C43.3424 12.07 42.9306 11.9375 42.4021 11.9375H39.0834V15.7753H42.4021Z" fill="#010101"/>
<path d="M55.7783 22.2926C55.2498 22.2926 54.8442 22.1543 54.5615 21.8777C54.2788 21.5895 54.1067 21.2265 54.0452 20.7886H53.953C53.7687 21.3533 53.4307 21.7797 52.939 22.0678C52.4474 22.3559 51.8512 22.5 51.1506 22.5C50.155 22.5 49.3868 22.258 48.846 21.7739C48.3174 21.2899 48.0532 20.6387 48.0532 19.8205C48.0532 18.9215 48.3973 18.2473 49.0857 17.7979C49.7863 17.3484 50.8065 17.1237 52.1462 17.1237H53.8793V16.363C53.8793 15.8098 53.7195 15.3834 53.3999 15.0838C53.0804 14.7841 52.5826 14.6343 51.9065 14.6343C51.3411 14.6343 50.8802 14.7496 50.5237 14.9801C50.1673 15.2105 49.8662 15.5044 49.6203 15.8617L48.4219 14.8418C48.7415 14.3347 49.1901 13.9198 49.7678 13.5971C50.3455 13.2629 51.1014 13.0957 52.0356 13.0957C53.277 13.0957 54.2296 13.3666 54.8933 13.9082C55.5571 14.4499 55.8889 15.2278 55.8889 16.242V20.754H56.903V22.2926H55.7783ZM51.7222 21.0652C52.349 21.0652 52.8653 20.9384 53.2709 20.6848C53.6765 20.4198 53.8793 20.0683 53.8793 19.6303V18.3338H52.1831C50.7942 18.3338 50.0997 18.7371 50.0997 19.5439V19.8551C50.0997 20.2584 50.241 20.5638 50.5237 20.7713C50.8187 20.9672 51.2182 21.0652 51.7222 21.0652Z" fill="#010101"/>
<path d="M60.9191 22.2926C60.2308 22.2926 59.7145 22.1312 59.3704 21.8085C59.0385 21.4743 58.8726 21.0133 58.8726 20.4255V9.5H60.8822V20.754H62.2097V22.2926H60.9191Z" fill="#010101"/>
<path d="M71.1546 22.2926C70.626 22.2926 70.2204 22.1543 69.9377 21.8777C69.655 21.5895 69.4829 21.2265 69.4215 20.7886H69.3293C69.1449 21.3533 68.8069 21.7797 68.3153 22.0678C67.8236 22.3559 67.2275 22.5 66.5269 22.5C65.5313 22.5 64.763 22.258 64.2222 21.7739C63.6937 21.2899 63.4294 20.6387 63.4294 19.8205C63.4294 18.9215 63.7736 18.2473 64.4619 17.7979C65.1625 17.3484 66.1827 17.1237 67.5225 17.1237H69.2555V16.363C69.2555 15.8098 69.0958 15.3834 68.7762 15.0838C68.4566 14.7841 67.9588 14.6343 67.2828 14.6343C66.7174 14.6343 66.2564 14.7496 65.9 14.9801C65.5435 15.2105 65.2424 15.5044 64.9966 15.8617L63.7982 14.8418C64.1177 14.3347 64.5664 13.9198 65.1441 13.5971C65.7218 13.2629 66.4777 13.0957 67.4118 13.0957C68.6533 13.0957 69.6058 13.3666 70.2696 13.9082C70.9333 14.4499 71.2652 15.2278 71.2652 16.242V20.754H72.2792V22.2926H71.1546ZM67.0984 21.0652C67.7253 21.0652 68.2415 20.9384 68.6471 20.6848C69.0527 20.4198 69.2555 20.0683 69.2555 19.6303V18.3338H67.5593C66.1704 18.3338 65.4759 18.7371 65.4759 19.5439V19.8551C65.4759 20.2584 65.6173 20.5638 65.9 20.7713C66.195 20.9672 66.5945 21.0652 67.0984 21.0652Z" fill="#010101"/>
<path d="M74.2488 9.5H76.2585V14.7899H76.3507C76.5596 14.2482 76.8976 13.8333 77.3647 13.5452C77.8441 13.2456 78.4033 13.0957 79.0425 13.0957C80.2593 13.0957 81.1996 13.5106 81.8633 14.3404C82.5271 15.1587 82.859 16.3112 82.859 17.7979C82.859 19.2846 82.5271 20.4428 81.8633 21.2726C81.1996 22.0909 80.2593 22.5 79.0425 22.5C78.4033 22.5 77.8441 22.3502 77.3647 22.0505C76.8976 21.7509 76.5596 21.336 76.3507 20.8059H76.2585V22.2926H74.2488V9.5ZM78.434 20.875C79.1347 20.875 79.6939 20.6676 80.1118 20.2527C80.5297 19.8262 80.7387 19.2673 80.7387 18.5758V17.0199C80.7387 16.3285 80.5297 15.7753 80.1118 15.3604C79.6939 14.934 79.1347 14.7207 78.434 14.7207C77.8195 14.7207 77.3032 14.8648 76.8853 15.1529C76.4674 15.4295 76.2585 15.7983 76.2585 16.2593V19.3364C76.2585 19.7974 76.4674 20.172 76.8853 20.4601C77.3032 20.7367 77.8195 20.875 78.434 20.875Z" fill="#010101"/>
<path d="M88.202 22.5C87.2924 22.5 86.5303 22.3502 85.9158 22.0505C85.3012 21.7509 84.7665 21.336 84.3117 20.8059L85.6023 19.6995C85.9588 20.1028 86.3521 20.4198 86.7823 20.6503C87.2248 20.8692 87.7349 20.9787 88.3126 20.9787C88.9026 20.9787 89.3389 20.875 89.6216 20.6676C89.9166 20.4486 90.0641 20.1489 90.0641 19.7686C90.0641 19.4805 89.9596 19.2385 89.7507 19.0426C89.554 18.8351 89.2037 18.7026 88.6998 18.6449L87.8148 18.5412C86.8315 18.426 86.0571 18.1609 85.4917 17.746C84.9386 17.3196 84.662 16.6915 84.662 15.8617C84.662 15.4238 84.7481 15.0377 84.9202 14.7035C85.0922 14.3577 85.3319 14.0696 85.6392 13.8391C85.9588 13.5971 86.3337 13.4127 86.7639 13.2859C87.2064 13.1591 87.6919 13.0957 88.2204 13.0957C89.0808 13.0957 89.7814 13.2225 90.3222 13.4761C90.8753 13.7296 91.367 14.0811 91.7972 14.5306L90.5619 15.637C90.3161 15.3604 89.9904 15.1241 89.5847 14.9282C89.1914 14.7207 88.7366 14.617 88.2204 14.617C87.6673 14.617 87.2555 14.7207 86.9851 14.9282C86.727 15.1356 86.5979 15.4065 86.5979 15.7407C86.5979 16.0864 86.7147 16.3457 86.9482 16.5186C87.1818 16.6915 87.5567 16.8183 88.0729 16.8989L88.9579 17.0027C90.0149 17.1525 90.7832 17.4464 91.2625 17.8843C91.7542 18.3107 92 18.887 92 19.613C92 20.051 91.9078 20.4486 91.7234 20.8059C91.5514 21.1516 91.2994 21.4512 90.9675 21.7048C90.6357 21.9583 90.2362 22.1543 89.7691 22.2926C89.302 22.4309 88.7797 22.5 88.202 22.5Z" fill="#010101"/>
</svg>
