<svg xmlns="http://www.w3.org/2000/svg" width="16" height="16" viewBox="0 0 16 16" fill="none">
  <path d="M14.087 3.55946H12.4174L11.4957 2.16816C11.1478 1.64642 10.5391 1.33337 9.91304 1.33337H6.08696C5.46087 1.33337 4.85217 1.64642 4.50435 2.16816L3.58261 3.55946H1.91304C0.852174 3.55946 0 4.41163 0 5.4725V12.2203C0 13.2812 0.852174 14.1334 1.91304 14.1334H14.087C15.1478 14.1334 16 13.2812 16 12.2203V5.4725C16 4.41163 15.1478 3.55946 14.087 3.55946ZM8 12.5682C5.61739 12.5682 3.68696 10.6377 3.68696 8.25511C3.68696 5.8725 5.61739 3.95946 8 3.95946C10.3826 3.95946 12.313 5.8899 12.313 8.2725C12.313 10.6377 10.3826 12.5682 8 12.5682ZM13.8435 6.25511C13.8261 6.25511 13.8087 6.25511 13.7739 6.25511H13.0783C12.7652 6.23772 12.5217 5.97685 12.5391 5.66381C12.5565 5.36816 12.7826 5.14207 13.0783 5.12468H13.7739C14.087 5.10729 14.3478 5.35076 14.3652 5.66381C14.3826 5.97685 14.1565 6.23772 13.8435 6.25511Z" fill="#151515"/>
  <path d="M8.0001 5.87244C6.67836 5.87244 5.6001 6.9507 5.6001 8.27244C5.6001 9.59418 6.67836 10.655 8.0001 10.655C9.32184 10.655 10.4001 9.57678 10.4001 8.25505C10.4001 6.93331 9.32184 5.87244 8.0001 5.87244Z" fill="#151515"/>
</svg>
