<svg width="16" height="16" viewBox="0 0 16 16" fill="none" xmlns="http://www.w3.org/2000/svg">
<path d="M2.51479 3.76883L2.26089 2.70507C2.19078 2.38764 1.90197 2.167 1.57729 2.18288C1.15496 2.20303 0.857429 2.60548 0.962711 3.01495L1.62677 5.76494C1.71298 6.1219 2.07158 6.34195 2.42886 6.25714L5.18016 5.59823C6.04648 5.38809 5.73137 4.08872 4.86505 4.29879L3.54214 4.61775C4.458 3.46119 5.80764 2.65304 7.3937 2.48369C10.5301 2.14877 13.3296 4.41103 13.6645 7.54744C13.7366 8.46155 15.1172 8.31268 14.9927 7.40433C14.6069 3.79221 11.5321 1.10235 7.61571 1.13942C5.31655 1.36669 3.64524 2.35307 2.51479 3.76883ZM10.8091 10.3821C9.90708 10.5668 10.2326 11.9247 11.1203 11.6803L12.4419 11.3613C11.526 12.5174 10.1765 13.3221 8.59032 13.4915C5.4539 13.8264 2.6557 11.5693 2.32078 8.43288C2.28866 8.08375 1.99161 7.81912 1.6411 7.82741C1.24724 7.83749 0.948003 8.18515 0.996565 8.57613C1.408 12.4291 4.87932 15.2323 8.73224 14.8209C10.6707 14.614 12.3401 13.6243 13.4705 12.2103L13.7283 13.2753C13.8907 14.2078 15.3002 13.8703 15.0226 12.9654L14.3625 10.2141C14.2874 9.89679 13.9938 9.6803 13.6118 9.71217L10.8091 10.3821Z" fill="#E5392C"/>
</svg>
