<svg xmlns="http://www.w3.org/2000/svg" width="16" height="16" viewBox="0 0 16 16" fill="none">
  <path d="M9.05033 3.33337H1.75055C0.787746 3.33337 0 4.12112 0 5.08392V10.9833C0 11.9461 0.787746 12.7338 1.75055 12.7338H9.05033C10.0131 12.7338 10.8009 11.9461 10.8009 10.9833V5.08392C10.8009 4.10361 10.0131 3.33337 9.05033 3.33337Z" fill="#151515"/>
  <path d="M14.7047 4.29614C14.5997 4.31365 14.4947 4.36616 14.4071 4.41868L11.6763 5.99417V10.0554L14.4246 11.6309C14.9323 11.9285 15.5625 11.7535 15.8601 11.2458C15.9476 11.0883 16.0001 10.9132 16.0001 10.7206V5.31146C16.0001 4.66376 15.3874 4.13859 14.7047 4.29614Z" fill="#151515"/>
</svg>
